<svg width="55" height="55" viewBox="0 0 55 55" fill="none" xmlns="http://www.w3.org/2000/svg">
<path d="M7.99266 39L5.70598 49.3926L5.57233 50H6.1943H48.8072H49.4292L49.2956 49.3926L47.0089 39H50.3912L54.2455 49.9466L54.2455 49.9466C54.7045 51.2498 54.5131 52.3729 53.911 53.1641C53.3051 53.9604 52.2221 54.5 50.7453 54.5H4.25629C2.77948 54.5 1.69645 53.9604 1.09009 53.164C0.487687 52.3727 0.295627 51.2497 0.753068 49.9467L7.99266 39ZM7.99266 39H4.61024L0.753243 49.9462L7.99266 39ZM27.5008 40.5361C27.4247 40.4573 27.3372 40.3661 27.2392 40.2627C26.8459 39.8484 26.2829 39.2406 25.6066 38.4699C24.2537 36.928 22.4502 34.7366 20.6476 32.1392C17.0278 26.923 13.473 20.1552 13.473 13.75C13.473 10.245 14.9438 6.87767 17.5718 4.39042C20.2006 1.90229 23.7718 0.5 27.5008 0.5C31.2298 0.5 34.8009 1.90229 37.4298 4.39042C40.0577 6.87767 41.5286 10.245 41.5286 13.75C41.5286 20.1552 37.9738 26.923 34.3539 32.1392C32.5513 34.7366 30.7478 36.928 29.3949 38.4699C28.7187 39.2406 28.1556 39.8484 27.7624 40.2627C27.6643 40.3661 27.5768 40.4573 27.5008 40.5361ZM27.5008 5.99275C22.9159 5.99275 19.1558 9.51292 19.1558 13.915C19.1558 16.026 20.042 18.0446 21.6098 19.5284C23.1767 21.0114 25.2961 21.84 27.5008 21.84C29.705 21.84 31.8241 21.0115 33.3907 19.5288C34.9582 18.0452 35.8443 16.027 35.8443 13.9164C35.8443 11.8057 34.9582 9.78752 33.3907 8.30394C31.8241 6.82124 29.705 5.99275 27.5008 5.99275Z" fill="#E31E24" stroke="black"/>
</svg>
