<svg width="60" height="50" viewBox="0 0 60 50" fill="none" xmlns="http://www.w3.org/2000/svg">
<path d="M39.9994 0.525H40C42.4771 0.525 44.5 2.5294 44.5 5V45C44.5 47.4739 42.4739 49.5 40 49.5H20C17.5261 49.5 15.5 47.4739 15.5 45V5C15.5 2.52624 17.526 0.500168 19.9997 0.5C19.9998 0.5 19.9999 0.5 20 0.5L39.9994 0.525ZM40 45.5H40.5V45V42.5V42H40H20H19.5V42.5V45V45.5H20H40ZM40 38H40.5V37.5V12.5V12H40H20H19.5V12.5V37.5V38H20H40ZM19.5 7.5V8H20H40H40.5V7.5V5V4.5H40H20H19.5V5V7.5ZM8 13H12V29.5H8V13ZM0.5 20.5H4.5V37H0.5V20.5ZM55.5 13H59.5V29.5H55.5V13ZM48 20.5H52V37H48V20.5Z" fill="#E31E24" stroke="black"/>
</svg>
