<svg width="55" height="40" viewBox="0 0 55 40" fill="none" xmlns="http://www.w3.org/2000/svg">
<path d="M26.3397 24.6101L26.5573 24.16L26.3397 24.6101C26.6995 24.7841 27.0974 24.8741 27.4998 24.8741C27.9022 24.8741 28.3002 24.7841 28.66 24.6101L28.4423 24.16L28.66 24.6101L54.0832 12.3172V31.875C54.0833 33.8098 53.2817 35.6793 51.8297 37.0979C50.3779 38.5162 48.3862 39.375 46.26 39.4878L45.7748 39.5H9.21859C7.08624 39.5001 5.04115 38.7467 3.50161 37.404C1.96528 36.0641 1.05026 34.2412 0.92959 32.3122L0.916504 31.8676V12.3172L26.3397 24.6101ZM9.22479 0.5H45.7811C47.8503 0.49977 49.8399 1.20921 51.365 2.48204C52.7944 3.67501 53.7185 5.28086 53.9962 7.01751L27.4998 19.8296L1.00348 7.01749C1.2693 5.35398 2.12852 3.80846 3.46074 2.63077C4.8843 1.37233 6.75342 0.618302 8.73432 0.512171L9.22479 0.5Z" fill="#E31E24" stroke="black"/>
</svg>
