<svg width="48" height="48" viewBox="0 0 48 48" fill="none" xmlns="http://www.w3.org/2000/svg">
<path d="M46.7738 14.356L46.774 14.3599C46.9326 17.179 46.9296 19.9801 46.9264 22.8155C46.926 23.2095 46.9256 23.6043 46.9256 23.9998C46.9256 24.4426 46.9262 24.8843 46.9269 25.3252C46.931 28.113 46.935 30.867 46.774 33.6388L46.7738 33.6436C46.5952 37.3309 45.7651 40.5098 43.1404 43.1345C40.5214 45.7535 37.3366 46.5894 33.6494 46.7679L33.6455 46.7682C30.8264 46.9268 28.0253 46.9237 25.19 46.9206C24.7959 46.9201 24.4012 46.9197 24.0056 46.9197C23.6109 46.9197 23.2169 46.9201 22.8235 46.9206C19.9919 46.9237 17.1901 46.9268 14.3657 46.7681L14.3619 46.7679C10.6745 46.5893 7.49561 45.7592 4.87092 43.1345C2.25198 40.5156 1.41608 37.3307 1.23749 33.6436L1.23728 33.6397C1.07867 30.8204 1.08175 28.0147 1.08486 25.182C1.08529 24.7885 1.08573 24.3945 1.08573 23.9998C1.08573 23.6051 1.08529 23.2111 1.08486 22.8176C1.08175 19.986 1.07867 17.1842 1.23728 14.3599L1.2373 14.3599L1.23749 14.356C1.41609 10.6686 2.24623 7.48975 4.87092 4.86506C7.48986 2.24612 10.6747 1.41022 14.3619 1.23163L14.3619 1.23164L14.3658 1.23142C17.1849 1.07282 19.9859 1.07589 22.8213 1.079C23.2154 1.07943 23.6101 1.07987 24.0056 1.07987C24.4004 1.07987 24.7944 1.07943 25.1878 1.079C28.0194 1.07589 30.8212 1.07281 33.6456 1.23144L33.6494 1.23163C37.3368 1.41023 40.5157 2.24037 43.1404 4.86506C45.7593 7.484 46.5952 10.6689 46.7738 14.356ZM16.6892 23.9998C16.6892 19.9751 19.9751 16.6892 23.9998 16.6892C28.0244 16.6892 31.3103 19.9751 31.3103 23.9998C31.3103 28.0244 28.0244 31.3103 23.9998 31.3103C19.9751 31.3103 16.6892 28.0244 16.6892 23.9998ZM11.4822 23.9998C11.4822 30.9263 17.0733 36.5174 23.9998 36.5174C30.9263 36.5174 36.5174 30.9263 36.5174 23.9998C36.5174 17.0733 30.9263 11.4822 23.9998 11.4822C17.0733 11.4822 11.4822 17.0733 11.4822 23.9998ZM33.2029 11.49C33.2029 13.3187 34.6803 14.7963 36.5089 14.7967L39.3162 11.49H39.8162C39.8162 11.4898 39.8162 11.4896 39.8162 11.4894C39.8159 9.66081 38.3382 8.18338 36.5096 8.18338C34.6807 8.18338 33.2029 9.66115 33.2029 11.49Z" fill="#E31E24" stroke="black"/>
</svg>
