<svg width="52" height="60" viewBox="0 0 52 60" fill="none" xmlns="http://www.w3.org/2000/svg">
<path d="M45.5 53.3086H46V52.8086V7.30859V6.80859H45.5H6.5H6V7.30859V52.8086V53.3086H6.5H45.5ZM26.5 19.8086V14.3086H38.5V19.8086H26.5ZM26.5 26.3086V24.0586H38.5V26.3086H26.5ZM13.5 26.3086V14.3086H22.25V26.3086H13.5ZM38.5 30.5586V32.8086H23.25V30.5586H38.5ZM38.5 37.0586V39.3086H33V37.0586H38.5ZM13.5 45.8086V43.5586H38.5V45.8086H13.5ZM13.5 39.3086V37.0586H28.75V39.3086H13.5ZM13.5 32.8086V30.5586H19V32.8086H13.5ZM3.25 1.30859H48.75C49.4793 1.30859 50.1788 1.59833 50.6945 2.11405C51.2103 2.62977 51.5 3.32925 51.5 4.05859V56.0586C51.5 56.7879 51.2103 57.4874 50.6945 58.0031C50.1788 58.5189 49.4793 58.8086 48.75 58.8086H3.25C2.52065 58.8086 1.82118 58.5189 1.30546 58.0031C0.789732 57.4874 0.5 56.7879 0.5 56.0586V4.05859C0.5 3.32925 0.789731 2.62977 1.30546 2.11405C1.82118 1.59832 2.52065 1.30859 3.25 1.30859Z" fill="#E31E24" stroke="black"/>
</svg>
