<svg width="46" height="35" viewBox="0 0 46 35" fill="none" xmlns="http://www.w3.org/2000/svg">
<path d="M40.9544 30.3511L41.6426 29.6307L31.049 17.6025L43.8523 6.30508L43.2641 5.5015L22.5419 17.9433L1.64585 5.3085L1.05876 6.11341L14.0337 17.4136L3.43688 29.6336L4.13001 30.3492L17.184 19.738L22.2485 23.39L22.5458 23.6044L22.8397 23.3854L27.7314 19.7404L40.9544 30.3511ZM5.20177 0.616211H39.8802C42.5009 0.616211 44.582 2.85797 44.582 5.93016V29.186C44.582 32.2582 42.5009 34.4999 39.8802 34.4999H5.20177C2.5811 34.4999 0.5 32.2582 0.5 29.186V5.93016C0.5 2.85797 2.5811 0.616211 5.20177 0.616211Z" fill="#EDEDED" stroke="#EDEDED"/>
</svg>
