<svg width="78" height="78" viewBox="0 0 78 78" fill="none" xmlns="http://www.w3.org/2000/svg">
<g filter="url(#filter0_d)">
<path d="M38.994 0L24.9034 7.92458V13.8892L10.2725 22.0354V36.6479L4 40.1742V56.0262L18.0966 63.9567L23.0846 61.1479L39 70L54.9064 61.1479L59.9034 63.9567L74 56.0262V40.1712L67.7275 36.6508V22.0354L53.0906 13.8892V7.92458L38.994 0ZM38.994 3.48542L48.3787 8.77333L39 14.0087L29.6212 8.7675L38.994 3.48833V3.48542ZM28.0156 11.3604L37.4454 16.625V27.3467L28.0156 22.0354V11.3604ZM49.9784 11.3604V22.0354L40.5606 27.3379V16.6221L49.9784 11.3604ZM53.0906 17.3746L64.6212 23.7825V34.9038L59.9034 32.2496L45.8067 40.1712V56.0262L51.8031 59.3979L39 66.5146L26.2029 59.3979L32.1933 56.0262V40.1712L18.0966 32.2496L13.3848 34.8979V23.7854L24.9034 17.3804V23.7825H24.9094L39 31.7071L53.0906 23.7825V17.3746ZM18.0966 35.7408L27.4754 41.0142L18.0966 46.2554L8.71789 41.0171L10.2725 40.1392L18.0966 35.7408ZM59.9034 35.7408L67.7275 40.145L69.2761 41.0171L59.9034 46.2554L50.5246 41.0171L59.9034 35.7379V35.7408ZM7.11825 43.6013L16.548 48.8775V59.5992L7.11825 54.2792V43.6042V43.6013ZM29.081 43.6013V54.2821L19.9664 59.4125L19.6633 59.5875V48.8746L29.081 43.6042V43.6013ZM48.919 43.6013L58.3547 48.8775V59.5992L58.0336 59.4096L48.919 54.2821V43.6042V43.6013ZM70.8817 43.6013V54.2821L61.461 59.5875V48.8775L70.8817 43.6013Z" fill="#E31E24"/>
<path d="M25.6331 15.1997L26.4034 14.7708V13.8892V8.80193L37.494 2.56455V2.61163L28.8851 7.46055L26.5556 8.77263L28.8895 10.0769L38.2682 15.3182L38.9996 15.7269L39.7311 15.3185L49.1099 10.0831L51.4452 8.77944L49.1151 7.46651L39.7303 2.17859L38.956 1.7423L38.9942 1.72086L51.5906 8.80211V13.8892V14.771L52.3612 15.1998L66.2275 22.9173V36.6508V37.5291L66.9933 37.9589L72.5 41.0495V55.149L59.903 62.2358L59.8547 62.2086V59.5992V48.8775V47.9977L59.0868 47.5683L49.651 42.292L47.419 41.0439V43.6013V43.6042V54.2821V55.1593L48.1835 55.5894L57.2844 60.7092L57.5922 60.8909L59.2186 61.8511L55.6413 59.8403L54.91 59.4293L54.1769 59.8372L38.9998 68.2835L23.8137 59.837L23.0801 59.429L22.3486 59.8409L18.0963 62.2354L5.5 55.149V41.0517L11.0076 37.9555L11.7725 37.5254V36.6479V22.9171L25.6331 15.1997ZM28.7468 10.0507L26.5156 8.80504V11.3604V22.0354V22.9121L27.2795 23.3424L36.7092 28.6536L38.9454 29.9131V27.3467V16.625V15.7445L38.1766 15.3153L28.7468 10.0507ZM51.4784 11.3604V8.80414L49.2468 10.0509L39.829 15.3126L39.0606 15.7419V16.6221V27.3379V29.9039L41.2965 28.645L50.7143 23.3425L51.4784 22.9123V22.0354V11.3604ZM53.8193 16.0634L51.5906 14.8249V17.3746V22.9052L39 29.9861L26.4034 22.9018V17.3804V14.83L24.1744 16.0695L12.6558 22.4745L11.8848 22.9032V23.7854V34.8979V37.4617L14.1197 36.2055L18.0967 33.9702L30.6933 41.0489V55.1492L25.4671 58.0907L23.1307 59.4058L25.4739 60.7088L38.271 67.8255L38.9998 68.2308L39.7288 67.8257L52.5319 60.709L54.877 59.4054L52.5383 58.0904L47.3067 55.1488V41.0489L59.903 33.9704L59.9442 33.9936L59.1676 34.4308L49.7888 39.7099L47.4576 41.0222L49.7932 42.3267L59.1719 47.565L59.9036 47.9737L60.6352 47.5648L70.0079 42.3265L72.3419 41.022L70.0121 39.7101L68.4635 38.838L68.4633 38.8379L61.4034 34.8639V34.8145L63.8858 36.2111L66.1212 37.4687V34.9038V23.7825V22.9L65.3499 22.4714L53.8193 16.0634ZM18.8318 34.4333L18.0967 34.02L17.3616 34.4333L9.53746 38.8316L9.53492 38.833L7.9803 39.711L5.65465 41.0243L7.98645 42.3267L17.3652 47.565L18.0968 47.9736L18.8284 47.5648L28.2071 42.3236L30.5431 41.0182L28.2105 39.7067L18.8318 34.4333ZM7.85068 42.2922L5.61825 41.0431V43.6013V43.6042V54.2792V55.1552L6.3812 55.5856L15.811 60.9056L18.048 62.1677V59.5992V48.8775V47.998L17.2805 47.5685L7.85068 42.2922ZM29.8168 55.5892L30.581 55.1591V54.2821V44.4836V43.6042V43.6013H29.081H29.0794L28.3485 42.2952L18.9307 47.5656L18.1633 47.9951V48.8746V59.5875V62.1855L20.4132 60.8866L20.7094 60.7156L29.8168 55.5892ZM72.3817 43.6013V41.0419L70.1488 42.2925L60.728 47.5688L59.961 47.9984V48.8775V59.5875V62.1538L62.197 60.8945L71.6178 55.5891L72.3817 55.1589V54.2821V43.6013Z" stroke="#E31E24" stroke-width="3"/>
</g>
<g filter="url(#filter1_d)">
<path d="M39.15 5L27.4125 11.7925V16.905L15.225 23.8875V36.4125L10 39.435V53.0225L21.7425 59.82L25.8975 57.4125L39.155 65L52.405 57.4125L56.5675 59.82L68.31 53.0225V39.4325L63.085 36.415V23.8875L50.8925 16.905V11.7925L39.15 5ZM39.15 7.9875L46.9675 12.52L39.155 17.0075L31.3425 12.515L39.15 7.99V7.9875ZM30.005 14.7375L37.86 19.25V28.44L30.005 23.8875V14.7375ZM48.3 14.7375V23.8875L40.455 28.4325V19.2475L48.3 14.7375ZM50.8925 19.8925L60.4975 25.385V34.9175L56.5675 32.6425L44.825 39.4325V53.0225L49.82 55.9125L39.155 62.0125L28.495 55.9125L33.485 53.0225V39.4325L21.7425 32.6425L17.8175 34.9125V25.3875L27.4125 19.8975V25.385H27.4175L39.155 32.1775L50.8925 25.385V19.8925ZM21.7425 35.635L29.555 40.155L21.7425 44.6475L13.93 40.1575L15.225 39.405L21.7425 35.635ZM56.5675 35.635L63.085 39.41L64.375 40.1575L56.5675 44.6475L48.755 40.1575L56.5675 35.6325V35.635ZM12.5975 42.3725L20.4525 46.895V56.085L12.5975 51.525V42.375V42.3725ZM30.8925 42.3725V51.5275L23.3 55.925L23.0475 56.075V46.8925L30.8925 42.375V42.3725ZM47.4175 42.3725L55.2775 46.895V56.085L55.01 55.9225L47.4175 51.5275V42.375V42.3725ZM65.7125 42.3725V51.5275L57.865 56.075V46.895L65.7125 42.3725Z" fill="black"/>
<path d="M31.985 40.488V42.3725H30.8925H30.8911L30.3479 41.4293L31.985 40.488Z" stroke="black" stroke-width="3"/>
</g>
<defs>
<filter id="filter0_d" x="0" y="0" width="78" height="78" filterUnits="userSpaceOnUse" color-interpolation-filters="sRGB">
<feFlood flood-opacity="0" result="BackgroundImageFix"/>
<feColorMatrix in="SourceAlpha" type="matrix" values="0 0 0 0 0 0 0 0 0 0 0 0 0 0 0 0 0 0 127 0"/>
<feOffset dy="4"/>
<feGaussianBlur stdDeviation="2"/>
<feColorMatrix type="matrix" values="0 0 0 0 0 0 0 0 0 0 0 0 0 0 0 0 0 0 0.25 0"/>
<feBlend mode="normal" in2="BackgroundImageFix" result="effect1_dropShadow"/>
<feBlend mode="normal" in="SourceGraphic" in2="effect1_dropShadow" result="shape"/>
</filter>
<filter id="filter1_d" x="6" y="5" width="66.31" height="68" filterUnits="userSpaceOnUse" color-interpolation-filters="sRGB">
<feFlood flood-opacity="0" result="BackgroundImageFix"/>
<feColorMatrix in="SourceAlpha" type="matrix" values="0 0 0 0 0 0 0 0 0 0 0 0 0 0 0 0 0 0 127 0"/>
<feOffset dy="4"/>
<feGaussianBlur stdDeviation="2"/>
<feColorMatrix type="matrix" values="0 0 0 0 0 0 0 0 0 0 0 0 0 0 0 0 0 0 0.25 0"/>
<feBlend mode="normal" in2="BackgroundImageFix" result="effect1_dropShadow"/>
<feBlend mode="normal" in="SourceGraphic" in2="effect1_dropShadow" result="shape"/>
</filter>
</defs>
</svg>
