<svg width="7" height="18" viewBox="0 0 7 18" fill="none" xmlns="http://www.w3.org/2000/svg">
<mask id="path-1-inside-1" fill="white">
<path d="M0.869665 14.6993C0.996134 15.7646 1.21056 16.5563 1.50565 17.0786C1.80439 17.5993 2.33472 17.859 3.1003 17.859C3.24342 17.859 3.37145 17.8409 3.49844 17.8198C3.62855 17.8409 3.75606 17.859 3.90022 17.859C4.66372 17.859 5.19561 17.5993 5.49279 17.0786C5.78944 16.5563 6.00022 15.7646 6.12929 14.6993L6.809 6.4742C6.93546 4.87102 7 3.72071 7 3.02245C7 2.07207 6.69346 1.33045 6.07829 0.798016C5.46104 0.265585 4.65019 0 3.64573 0C3.59212 0 3.55204 0.00968066 3.49948 0.0113642C3.44952 0.00968066 3.4084 0 3.35636 0C2.34981 0 1.54052 0.265585 0.924312 0.798016C0.308624 1.33129 0 2.07333 0 3.02287C0 3.72113 0.062974 4.87144 0.191524 6.47462L0.869665 14.6993Z"/>
</mask>
<path d="M0.869665 14.6993C0.996134 15.7646 1.21056 16.5563 1.50565 17.0786C1.80439 17.5993 2.33472 17.859 3.1003 17.859C3.24342 17.859 3.37145 17.8409 3.49844 17.8198C3.62855 17.8409 3.75606 17.859 3.90022 17.859C4.66372 17.859 5.19561 17.5993 5.49279 17.0786C5.78944 16.5563 6.00022 15.7646 6.12929 14.6993L6.809 6.4742C6.93546 4.87102 7 3.72071 7 3.02245C7 2.07207 6.69346 1.33045 6.07829 0.798016C5.46104 0.265585 4.65019 0 3.64573 0C3.59212 0 3.55204 0.00968066 3.49948 0.0113642C3.44952 0.00968066 3.4084 0 3.35636 0C2.34981 0 1.54052 0.265585 0.924312 0.798016C0.308624 1.33129 0 2.07333 0 3.02287C0 3.72113 0.062974 4.87144 0.191524 6.47462L0.869665 14.6993Z" fill="#E31E24"/>
<path d="M1.50565 17.0786L0.19963 17.8165L0.204605 17.8252L1.50565 17.0786ZM3.49844 17.8198L3.73794 16.3391L3.49549 16.2999L3.2532 16.34L3.49844 17.8198ZM5.49279 17.0786L6.79552 17.8222L6.79711 17.8194L5.49279 17.0786ZM6.12929 14.6993L7.6184 14.8798L7.62184 14.8514L7.6242 14.8229L6.12929 14.6993ZM6.809 6.4742L8.30391 6.59774L8.30435 6.59217L6.809 6.4742ZM6.07829 0.798016L7.05994 -0.336169L7.05804 -0.337807L6.07829 0.798016ZM3.49948 0.0113642L3.44896 1.51051L3.49823 1.51217L3.5475 1.5106L3.49948 0.0113642ZM0.924312 0.798016L-0.0563847 -0.336989L-0.0577451 -0.335811L0.924312 0.798016ZM0.191524 6.47462L-1.30368 6.59452L-1.3034 6.59788L0.191524 6.47462ZM-0.619875 14.8762C-0.484768 16.0142 -0.240177 17.0379 0.199659 17.8165L2.81164 16.3408C2.66129 16.0747 2.47703 15.515 2.35921 14.5225L-0.619875 14.8762ZM0.204605 17.8252C0.846127 18.9432 1.96825 19.359 3.1003 19.359V16.359C2.88107 16.359 2.79631 16.3212 2.78731 16.3168C2.7842 16.3152 2.79125 16.3185 2.80107 16.3278C2.81073 16.3369 2.8119 16.3412 2.8067 16.3321L0.204605 17.8252ZM3.1003 19.359C3.36985 19.359 3.59587 19.3242 3.74368 19.2997L3.2532 16.34C3.14703 16.3576 3.11699 16.359 3.1003 16.359V19.359ZM3.25894 19.3006C3.40433 19.3241 3.63005 19.359 3.90022 19.359V16.359C3.88207 16.359 3.85277 16.3577 3.73794 16.3391L3.25894 19.3006ZM3.90022 19.359C5.02864 19.359 6.15521 18.944 6.79552 17.8222L4.19006 16.3351C4.18559 16.3429 4.18741 16.3378 4.19751 16.3283C4.20772 16.3187 4.21499 16.3153 4.21184 16.3168C4.2027 16.3213 4.118 16.359 3.90022 16.359V19.359ZM6.79711 17.8194C7.24141 17.0371 7.48155 16.0093 7.6184 14.8798L4.64018 14.5189C4.5189 15.5199 4.33748 16.0755 4.18847 16.3379L6.79711 17.8194ZM7.6242 14.8229L8.3039 6.59774L5.31409 6.35067L4.63439 14.5758L7.6242 14.8229ZM8.30435 6.59217C8.43086 4.98845 8.5 3.78572 8.5 3.02245H5.5C5.5 3.6557 5.44007 4.75358 5.31364 6.35624L8.30435 6.59217ZM8.5 3.02245C8.5 1.71914 8.0619 0.531043 7.05993 -0.336168L5.09665 1.9322C5.32501 2.12985 5.5 2.42499 5.5 3.02245H8.5ZM7.05804 -0.337807C6.10874 -1.15666 4.9223 -1.5 3.64573 -1.5V1.5C4.37807 1.5 4.81334 1.68783 5.09854 1.93384L7.05804 -0.337807ZM3.64573 -1.5C3.52885 -1.5 3.43431 -1.48891 3.40386 -1.48547C3.38267 -1.48308 3.38967 -1.48388 3.39442 -1.48433C3.40396 -1.48524 3.42445 -1.487 3.45146 -1.48787L3.5475 1.5106C3.60079 1.50889 3.646 1.50529 3.67952 1.50209C3.69593 1.50052 3.71006 1.499 3.72002 1.49789C3.72746 1.49707 3.73992 1.49565 3.74057 1.49557C3.75669 1.49375 3.70899 1.5 3.64573 1.5V-1.5ZM3.55 -1.48778C3.57889 -1.48681 3.60044 -1.48487 3.60944 -1.48399C3.61357 -1.48359 3.62075 -1.48277 3.59893 -1.48526C3.56915 -1.48866 3.47369 -1.5 3.35636 -1.5V1.5C3.29107 1.5 3.24218 1.4935 3.25846 1.49536C3.26045 1.49559 3.26211 1.49578 3.26574 1.4962C3.26886 1.49656 3.27323 1.49706 3.278 1.4976C3.28753 1.49867 3.30129 1.50018 3.31727 1.50175C3.34966 1.50492 3.39509 1.5087 3.44896 1.51051L3.55 -1.48778ZM3.35636 -1.5C2.07781 -1.5 0.892304 -1.1567 -0.056384 -0.336988L1.90501 1.93302C2.18874 1.68787 2.62182 1.5 3.35636 1.5V-1.5ZM-0.0577451 -0.335811C-1.05777 0.530357 -1.5 1.71721 -1.5 3.02287H1.5C1.5 2.42945 1.67502 2.13222 1.90637 1.93184L-0.0577451 -0.335811ZM-1.5 3.02287C-1.5 3.78584 -1.43252 4.98763 -1.30368 6.59452L1.68673 6.35473C1.55847 4.75524 1.5 3.65642 1.5 3.02287H-1.5ZM-1.3034 6.59788L-0.625262 14.8226L2.36459 14.5761L1.68645 6.35136L-1.3034 6.59788Z" fill="#EDEDED" mask="url(#path-1-inside-1)"/>
</svg>
