<svg width="37" height="46" viewBox="0 0 37 46" fill="none" xmlns="http://www.w3.org/2000/svg">
<path d="M31.5833 34.375V34.875H32.0833H34.375C35.3593 34.875 36.1667 35.6824 36.1667 36.6667C36.1667 37.6509 35.3593 38.4583 34.375 38.4583H2.29167C1.30739 38.4583 0.5 37.6509 0.5 36.6667C0.5 35.6824 1.30739 34.875 2.29167 34.875H4.58333H5.08333V34.375V18.3333C5.08333 12.1731 9.30062 6.98345 15.0193 5.52618L15.3958 5.43023V5.04167V3.4375C15.3958 1.81156 16.7074 0.5 18.3333 0.5C19.9593 0.5 21.2708 1.81156 21.2708 3.4375V5.04167V5.43023L21.6474 5.52618C27.366 6.98345 31.5833 12.1731 31.5833 18.3333V34.375ZM22.3859 41.75C22.1372 43.7614 20.4088 45.3333 18.3333 45.3333C16.2578 45.3333 14.5295 43.7614 14.2807 41.75H22.3859Z" fill="#EDEDED" stroke="#EDEDED"/>
</svg>
