<svg width="50" height="45" viewBox="0 0 50 45" fill="none" xmlns="http://www.w3.org/2000/svg">
<path d="M24.5882 44.5H3.75C2.00957 44.5 0.5 42.8912 0.5 40.7812V37.125C0.5 30.8227 5.033 25.8125 10.5 25.8125H11.6848C13.4636 26.7083 15.4256 27.2188 17.5 27.2188C19.5736 27.2188 21.5432 26.7086 23.3157 25.8125H24.5C27.3029 25.8125 29.829 27.1521 31.648 29.2977L25.8919 35.7733L25.2747 36.4676L25.1663 36.5896L25.1507 36.752L25.0571 37.726L25.057 37.7276L24.5259 43.0785L24.5258 43.0795C24.4788 43.5624 24.5035 44.039 24.5882 44.5ZM38.8124 26.7241L43.7451 32.2734L33.3918 43.9209L28.8205 44.4951L28.8166 44.4956C28.4263 44.5478 27.9424 44.1534 28.0055 43.4925C28.0055 43.4924 28.0055 43.4922 28.0055 43.492L28.5206 38.294L38.8124 26.7241ZM27 11.25C27 17.2447 22.6936 22 17.5 22C12.3064 22 8 17.2447 8 11.25C8 5.25529 12.3064 0.5 17.5 0.5C22.6936 0.5 27 5.25529 27 11.25ZM46.1185 20.6349L49.0777 23.964C49.0779 23.9643 49.0781 23.9645 49.0784 23.9648C49.6379 24.6019 49.6379 25.6451 49.0784 26.2823C49.0781 26.2826 49.0779 26.2828 49.0777 26.2831L46.1872 29.5348L41.2473 23.9851L41.2721 23.9572L44.2253 20.6349C44.7529 20.0413 45.5908 20.0413 46.1185 20.6349Z" fill="#EDEDED" stroke="#EDEDED"/>
</svg>
