<svg width="69" height="44" viewBox="0 0 69 44" fill="none" xmlns="http://www.w3.org/2000/svg">
<path d="M3.44538 1.78127H65.4622C66.7195 1.78127 68.0462 3.13494 68.0462 5.22664V39.6804C68.0462 41.7721 66.7195 43.1258 65.4622 43.1258H3.44538C2.18802 43.1258 0.861345 41.7721 0.861345 39.6804V5.22664C0.861345 3.13494 2.18802 1.78127 3.44538 1.78127ZM31.8697 37.3117C32.9908 37.3117 33.5924 36.255 33.5924 35.3737V34.297C33.5924 33.4157 32.9908 32.359 31.8697 32.359H7.7521C6.63107 32.359 6.02941 33.4157 6.02941 34.297V35.3737C6.02941 36.255 6.63108 37.3117 7.7521 37.3117H31.8697ZM6.89076 24.6069V26.7603C6.89076 27.6415 7.49242 28.6983 8.61345 28.6983H10.3361C11.4572 28.6983 12.0588 27.6415 12.0588 26.7603V24.6069C12.0588 23.7256 11.4572 22.6689 10.3361 22.6689H8.61345C7.49242 22.6689 6.89076 23.7256 6.89076 24.6069ZM13.7815 24.6069V26.7603C13.7815 27.6415 14.3832 28.6983 15.5042 28.6983H17.2269C18.3479 28.6983 18.9496 27.6415 18.9496 26.7603V24.6069C18.9496 23.7256 18.3479 22.6689 17.2269 22.6689H15.5042C14.3832 22.6689 13.7815 23.7256 13.7815 24.6069ZM20.6723 24.6069V26.7603C20.6723 27.6415 21.2739 28.6983 22.395 28.6983H24.1176C25.2387 28.6983 25.8403 27.6415 25.8403 26.7603V24.6069C25.8403 23.7256 25.2387 22.6689 24.1176 22.6689H22.395C21.2739 22.6689 20.6723 23.7256 20.6723 24.6069ZM27.563 24.6069V26.7603C27.563 27.6415 28.1647 28.6983 29.2857 28.6983H31.0084C32.1294 28.6983 32.7311 27.6415 32.7311 26.7603V24.6069C32.7311 23.7256 32.1294 22.6689 31.0084 22.6689H29.2857C28.1647 22.6689 27.563 23.7256 27.563 24.6069ZM31.0084 21.1615C32.6053 21.1615 33.5924 19.623 33.5924 18.1468V11.6867C33.5924 10.2106 32.6053 8.67202 31.0084 8.67202H8.61345C7.01653 8.67202 6.02941 10.2106 6.02941 11.6867V18.1468C6.02941 19.623 7.01653 21.1615 8.61345 21.1615H31.0084ZM61.1555 37.3117C62.2765 37.3117 62.8781 36.255 62.8781 35.3737V34.297C62.8781 33.4157 62.2765 32.359 61.1555 32.359H37.0378C35.9168 32.359 35.3151 33.4157 35.3151 34.297V35.3737C35.3151 36.255 35.9168 37.3117 37.0378 37.3117H61.1555Z" fill="#E31E24" stroke="black" stroke-width="1.72269"/>
</svg>
