<svg width="65" height="45" viewBox="0 0 65 45" fill="none" xmlns="http://www.w3.org/2000/svg">
<path d="M37.9167 7H37.4167V7.5V10V10.5H37.9167H59.5833H60.0833V10V7.5V7H59.5833H37.9167ZM37.9167 12H37.4167V12.5V15V15.5H37.9167H59.5833H60.0833V15V12.5V12H59.5833H37.9167ZM37.9167 17H37.4167V17.5V20V20.5H37.9167H56.875H57.375V20V17.5V17H56.875H37.9167ZM4.91667 37.5V38H5.41667H37.9167H38.4167V37.5V35C38.4167 33.5524 37.6294 32.3186 36.4678 31.3066C35.3066 30.295 33.724 29.4601 32.0029 28.796C28.561 27.468 24.4375 26.775 21.6667 26.775C18.8958 26.775 14.7724 27.468 11.3304 28.796C9.60936 29.4601 8.02669 30.295 6.86556 31.3066C5.70397 32.3186 4.91667 33.5524 4.91667 35V37.5ZM5.41667 0.5H59.5833C62.1894 0.5 64.5 2.68807 64.5 5V40C64.5 42.3119 62.1894 44.5 59.5833 44.5H5.41667C2.81062 44.5 0.5 42.3119 0.5 40V5C0.5 2.68807 2.81062 0.5 5.41667 0.5ZM21.6667 7C19.3915 7 17.2023 7.83391 15.5823 9.3293C13.9609 10.8259 13.0417 12.8648 13.0417 15C13.0417 17.1352 13.9609 19.1741 15.5823 20.6707C17.2023 22.1661 19.3915 23 21.6667 23C23.9418 23 26.131 22.1661 27.751 20.6707C29.3724 19.1741 30.2917 17.1352 30.2917 15C30.2917 12.8648 29.3724 10.8259 27.751 9.3293C26.131 7.83391 23.9418 7 21.6667 7Z" fill="#E31E24" stroke="black"/>
</svg>
